With: Nicolas Cage, Shahkrit Yamnarm and Charlie Yeung

Een professionele huurmoordenaar (Nicolas Cage) verblijft in Bangkok om een aantal klussen af te handelen. Maar dat blijkt lastiger dan gedacht, en hij ondervindt de nodige tegenwerking. Dan valt hij ook nog eens voor een lokale schoonheid en moet hij een van zijn weinige vertrouwelingen te vriend zien te houden.

A hitman who's in Bangkok to pull off a series of jobs falls for a local woman and bonds with his errand boy. 

------------------ Dutch Friends ------------------
You can find my Friends at: http://www.Film-Test.nl 
  ------ They got my dutchs subs ---- and more ------

General:

Complete name                    : Bangkok Dangerous\Bangkok Dangerous.avi
Format                           : AVI
Format/Info                      : Audio Video Interleave
File size                        : 1.45 GiB
Duration                         : 1h 34mn
Overall bit rate                 : 2 186 Kbps

Video:

Format                           : MPEG-4 Visual
Format profile                   : Simple@L3
Format settings, BVOP            : No
Format settings, QPel            : No
Format settings, GMC             : No warppoints
Format settings, Matrix          : Default (H.263)
Codec ID                         : XVID
Codec ID/Hint                    : XviD
Duration                         : 1h 34mn
Bit rate                         : 1 792 Kbps
Width                            : 652 pixels
Height                           : 352 pixels
Display aspect ratio             : 1.852
Frame rate                       : 25.000 fps
Color space                      : YUV
Chroma subsampling               : 4:2:0
Bit depth                        : 8 bits
Scan type                        : Progressive
Bits/(Pixel*Frame)               : 0.312
Stream size                      : 1.19 GiB (82%)
Writing library                  : XviD 1.1.2 (UTC 2006-11-01)

Audio:

Format                           : AC-3
Format/Info                      : Audio Coding 3
Mode extension                   : CM (complete main)
Codec ID                         : 2000
Duration                         : 1h 34mn
Bit rate mode                    : Constant
Bit rate                         : 384 Kbps
Channel(s)                       : 6 channels
Channel positions                : Front: L C R, Side: L R, LFE
Sampling rate                    : 48.0 KHz
Bit depth                        : 16 bits
Stream size                      : 260 MiB (18%)
Alignment                        : Aligned on interleaves
Interleave, duration             : 32 ms (0.80 video frame)
Interleave, preload duration     : 704 ms


